<?xml version="1.0" encoding="utf-8"?>
<!-- Generator: Adobe Illustrator 13.0.0, SVG Export Plug-In . SVG Version: 6.00 Build 14948)  -->
<!DOCTYPE svg PUBLIC "-//W3C//DTD SVG 1.1//EN" "http://www.w3.org/Graphics/SVG/1.1/DTD/svg11.dtd">
<svg version="1.1" id="Layer_1" xmlns="http://www.w3.org/2000/svg" xmlns:xlink="http://www.w3.org/1999/xlink" x="0px" y="0px"
	 width="612px" height="792px" viewBox="0 0 612 792" enable-background="new 0 0 612 792" xml:space="preserve">
<title  id="title3722">usda-symbol</title>
<path id="path3724" fill="#FFFFFF" d="M138.816,203.676l-0.791,105.559c0,43.914-26.057,60.896-61.063,60.896
	c-30.177,0-68.638-13.403-68.638-59.106V203.676C8.088,198.5,4.826,193.949,0,192.062h49.491c-4.737,1.937-7.875,6.497-7.992,11.613
	v108.223c0,18.065,6.202,43.622,39.751,43.622c30.718,0,41.624-20.146,41.624-45.787l-0.333-106.058
	c0.164-4.9-2.555-9.442-6.951-11.613h29.928C141.219,194.304,138.606,198.832,138.816,203.676z"/>
<path id="path3726" fill="#FFFFFF" d="M208.704,370.131c-17.264-0.201-34.237-4.48-49.533-12.487l-1.291-43.622
	c4.912,18.314,20.396,42.581,47.244,42.581c25.557,0,33.299-18.314,33.299-30.968c0-24.974-22.436-28.138-45.787-40.792
	s-34.049-27.097-34.049-46.702c-0.208-34.84,32.592-48.909,56.068-48.909c13.569-0.045,26.944,3.227,38.96,9.532l1.29,38.211
	c-3.621-13.694-18.314-34.34-43.081-34.34c-19.605,0-27.347,13.694-27.347,24.974c0,15.734,11.114,21.687,35.339,32.758
	c24.225,11.072,49.033,19.688,49.033,55.568C268.851,348.195,240.463,370.131,208.704,370.131L208.704,370.131z"/>
<path id="path3728" fill="#FFFFFF" d="M352.182,367.55h-66.307c4.242-2.301,6.832-6.789,6.702-11.613V203.676
	c0.21-4.844-2.402-9.372-6.702-11.613h68.638c84.913,0,101.938,60.147,101.938,85.163C456.45,322.138,421.86,367.55,352.182,367.55z
	 M349.102,204.966c-6.202,0-19.854,0-23.726,0.5v148.682h20.812c58.273,0,74.59-39.21,74.59-76.921
	C420.57,246.257,402.506,204.966,349.102,204.966z"/>
<path id="path3730" fill="#FFFFFF" d="M556.765,367.55c6.701-3.621,7.992-7.243,6.202-12.487
	c-0.791-2.581-7.492-18.314-14.693-35.88H484.88c-5.413,11.625-10.233,23.518-14.443,35.63c-2.331,6.202-1.041,9.823,5.952,12.903
	h-35.631c5.16-2.904,9.367-7.242,12.113-12.487c5.078-10.115,72.925-168.578,72.925-168.578s68.639,158.463,73.301,168.245
	c2.404,5.757,7.07,10.273,12.903,12.487L556.765,367.55z M515.973,242.386c0,0-17.565,43.872-25.807,63.227h52.155
	c-12.113-28.638-26.307-63.227-26.307-63.227H515.973z"/>
<path id="path3732" fill="#FFFFFF" d="M604.258,392.358c0,0-375.575-9.324-598.056,109.222c0,0,235.717-93.238,597.973-83.915
	L604.258,392.358z"/>
<path id="path3734" fill="#FFFFFF" d="M6.202,392.358c0,0,126.496,1.332,205.082,30.635c0,0-161.127-13.319-205.082-6.66V392.358z"
	/>
<path id="path3736" fill="#FFFFFF" d="M6.202,433.649c0,0,90.574-4.163,145.143,1.332c0,0-131.823,15.983-145.143,22.644V433.649z"
	/>
<path id="path3738" fill="#FFFFFF" d="M542.029,437.729h-1.914c-109.347,2.123-338.28,15.317-533.913,84.372v83.248h597.973v-167.62
	C604.175,437.729,581.115,437.021,542.029,437.729z"/>
</svg>
